<?xml version="1.0" standalone="no"?>
<!DOCTYPE svg PUBLIC "-//W3C//DTD SVG 20010904//EN"
 "http://www.w3.org/TR/2001/REC-SVG-20010904/DTD/svg10.dtd">
<svg version="1.0" xmlns="http://www.w3.org/2000/svg"
 width="4324.000000pt" height="4688.000000pt" viewBox="0 0 4324.000000 4688.000000"
 preserveAspectRatio="xMidYMid meet">

<g transform="translate(0.000000,4688.000000) scale(0.100000,-0.100000)"
fill="#000000" stroke="none">
<path d="M1392 42815 l3 -3395 5190 -3 c3873 -3 5224 -6 5325 -15 559 -49 956
-119 1422 -251 2066 -588 3761 -2139 4531 -4147 289 -754 437 -1513 454 -2324
23 -1136 -217 -2208 -719 -3215 -381 -762 -910 -1461 -1528 -2018 -80 -72
-3415 -3400 -7412 -7396 l-7268 -7266 0 -6272 0 -6273 3400 0 3400 0 0 4863 1
4862 6735 6740 c4780 4783 6777 6788 6878 6905 869 1003 1621 2192 2154 3405
504 1148 851 2362 1021 3570 49 349 93 772 107 1020 3 72 8 133 10 136 16 28
24 945 11 1314 -78 2289 -760 4573 -1957 6550 -1267 2093 -3082 3821 -5230
4977 -1692 912 -3568 1457 -5470 1592 -118 9 -246 18 -285 22 -38 4 -2479 9
-5423 11 l-5352 3 2 -3395z"/>
<path d="M1390 26598 l0 -10413 3400 3400 3400 3400 0 7012 0 7013 -3400 0
-3400 0 0 -10412z"/>
<path d="M19665 18050 l-2400 -2400 7705 -7705 7705 -7705 4805 0 4805 0
-10105 10105 c-5558 5558 -10107 10105 -10110 10105 -3 0 -1085 -1080 -2405
-2400z"/>
</g>
</svg>
